<svg width="68" height="34" viewBox="0 0 68 34" fill="none" xmlns="http://www.w3.org/2000/svg">
<path d="M0.773438 16.5065C1.81465 16.2162 2.88525 15.9839 3.90802 15.6193C7.9953 14.164 11.1041 11.5585 13.2545 7.8679C14.7748 5.25691 16.7245 3.02878 19.4058 1.50827C23.5999 -0.870476 29.0104 -0.369688 32.7254 2.68222C33.1105 2.99793 33.5086 3.30275 33.8735 3.64205C34.1075 3.85797 34.2568 3.81262 34.4926 3.6348C35.4693 2.89451 36.3981 2.0653 37.4669 1.47742C41.9264 -0.973901 47.2373 -0.326143 51.1403 3.05417C52.7655 4.46219 54.0629 6.11334 55.1538 7.94775C57.8535 12.4857 61.8469 15.2927 67.1227 16.3451C67.2812 16.3759 67.4378 16.4139 67.7013 16.4702C67.0747 16.6099 66.5404 16.7116 66.0171 16.8495C61.2055 18.1214 57.5642 20.8812 55.0894 25.1016C53.5764 27.6853 51.6489 29.8972 48.999 31.4122C44.7772 33.8291 39.3521 33.3337 35.6112 30.2564C35.2371 29.9479 34.8483 29.6522 34.4945 29.3219C34.2512 29.0951 34.0927 29.1423 33.844 29.3292C32.8433 30.0822 31.8906 30.9295 30.796 31.5211C26.3605 33.918 21.1011 33.2575 17.2276 29.9098C15.6226 28.5236 14.3234 26.9033 13.2528 25.0888C10.5475 20.5019 6.53401 17.6587 1.21017 16.6026C1.05539 16.5772 0.9043 16.5373 0.773438 16.5065ZM16.5071 16.5101C18.0421 17.323 19.1165 18.4969 19.848 19.9957C20.622 21.5797 21.6742 22.9841 22.9439 24.2234C25.5146 26.7345 28.6086 28.2641 32.191 28.8484C32.8986 28.9645 33.6191 29.1042 34.3304 29.0861C35.1247 29.0643 35.9245 28.9119 36.7057 28.7504C42.1678 27.6182 46.1482 24.6026 48.6452 19.7253C49.3086 18.4298 50.2705 17.4101 51.5493 16.6734C51.6452 16.619 51.7336 16.55 51.8719 16.4556C50.3036 15.6338 49.2348 14.4562 48.5015 12.9593C47.7256 11.3752 46.6752 9.9709 45.4056 8.72977C42.8349 6.21857 39.7409 4.68899 36.1585 4.10474C35.4509 3.98862 34.7304 3.84891 34.0191 3.86705C33.2248 3.88883 32.425 4.04124 31.6436 4.20271C26.1817 5.33675 22.2012 8.34874 19.7043 13.2277C19.273 14.0697 18.7184 14.8227 17.9832 15.4323C17.5317 15.8097 17.0342 16.1291 16.5071 16.5101ZM30.1879 2.91265C30.1252 2.84733 30.1031 2.81104 30.0718 2.79289C29.9557 2.72394 29.8396 2.655 29.7161 2.59875C26.4286 1.0982 23.1725 1.15082 20.0379 2.95257C17.7104 4.29163 16.0095 6.2603 14.6901 8.54288C12.6649 12.052 9.77543 14.6304 6.01614 16.2833C5.90193 16.3342 5.79319 16.3922 5.61808 16.4774C5.79319 16.5646 5.88528 16.6172 5.98116 16.6589C9.74782 18.3009 12.6483 20.8703 14.668 24.383C15.6576 26.1049 16.9107 27.6146 18.4512 28.8937C21.1417 31.1274 24.2118 31.8821 27.6577 31.0947C28.5422 30.8933 29.3862 30.5702 30.2487 30.0568C29.7548 29.9026 29.3421 29.7865 28.9366 29.6467C24.0864 27.9901 20.5465 24.8911 18.2687 20.4003C17.3086 18.5042 15.7885 17.2378 13.7153 16.6081C13.6084 16.5755 13.5052 16.5301 13.3375 16.4665C15.6594 15.8243 17.2921 14.4943 18.3333 12.4494C20.764 7.68283 24.6134 4.55835 29.8304 3.02877C29.9429 2.99611 30.0515 2.9562 30.1879 2.91265ZM38.1689 2.85276C38.2243 2.91083 38.239 2.94167 38.2611 2.94893C38.6481 3.07232 39.0387 3.18119 39.422 3.31364C44.2723 4.97205 47.8085 8.07293 50.0844 12.5655C51.0444 14.4616 52.5684 15.7245 54.6416 16.3523C54.7447 16.3831 54.8424 16.4321 54.9991 16.4956C52.6974 17.1343 51.0648 18.4498 50.0291 20.482C47.5948 25.263 43.7415 28.4002 38.508 29.9316C38.3993 29.9624 38.2943 30.0042 38.1211 30.0641C38.2685 30.153 38.3441 30.2074 38.427 30.2473C41.7679 31.8803 45.096 31.8459 48.319 30.0006C50.6483 28.667 52.3436 26.6892 53.663 24.4085C55.6975 20.8884 58.598 18.3009 62.3794 16.6571C62.4789 16.6135 62.571 16.5518 62.7203 16.4684C62.5379 16.3831 62.431 16.3305 62.3223 16.2815C58.6054 14.6449 55.7232 12.1082 53.7201 8.63542C52.8725 7.16572 51.8332 5.8448 50.5912 4.67085C48.0389 2.25582 45.0389 1.15626 41.4804 1.70241C40.3176 1.87659 39.223 2.25581 38.1689 2.85276Z" fill="url(#paint0_linear_1249_491)"/>
<path d="M43.4591 9.45282C40.8387 13.7406 38.29 17.9119 35.7046 22.1406C35.422 21.5733 35.1567 21.0821 34.9387 20.5723C34.8898 20.4609 34.9753 20.2668 35.0503 20.1402C36.7914 17.2384 38.5395 14.3416 40.2858 11.4413C40.3607 11.3165 40.4305 11.1865 40.5369 10.9974C40.345 10.9857 40.2124 10.9721 40.0815 10.9704C39.1918 10.967 38.3021 10.9704 37.4142 10.9637C34.1414 10.9418 30.8687 10.9181 27.5959 10.8944C27.055 10.8911 26.6014 10.6868 26.209 10.3324C26.0467 10.1871 26.0153 10.0774 26.1653 9.90012C27.7912 7.98755 29.8446 6.73835 32.3916 6.3349C35.9889 5.76432 39.0768 6.7603 41.6517 9.24181C41.7704 9.35659 41.9745 9.42918 42.1454 9.44269C42.5431 9.47307 42.9409 9.45282 43.4591 9.45282ZM29.0543 9.39205C32.5155 9.39205 35.9767 9.39205 39.4379 9.39205C36.9379 7.23465 32.1544 6.89197 29.0543 9.39205Z" fill="url(#paint1_linear_1249_491)"/>
<path d="M23.4336 11.8425C28.5493 11.8425 33.5936 11.8425 38.7163 11.8425C38.3295 12.3313 37.9793 12.7893 37.6081 13.2284C37.5523 13.2936 37.399 13.2971 37.2892 13.2987C35.7316 13.3143 34.1738 13.3228 32.6161 13.3348C30.6071 13.3485 28.5998 13.3622 26.5908 13.3777C26.4898 13.3777 26.3887 13.3897 26.2284 13.4017C26.3382 13.6075 26.4253 13.7825 26.5246 13.9506C28.5545 17.3744 30.5809 20.8 32.6195 24.2186C32.9645 24.7968 33.0569 25.3851 32.8739 26.0249C32.8147 26.2325 32.7137 26.2874 32.482 26.2479C28.1851 25.5155 25.0122 22.584 24.0783 18.4379C23.7211 16.8546 23.782 15.2715 24.2351 13.7088C24.3066 13.4617 24.296 13.2576 24.1497 13.0363C23.9057 12.6692 23.6932 12.2816 23.4336 11.8425ZM30.736 24.1517C28.9866 21.2048 27.2617 18.299 25.514 15.3554C24.3762 17.9749 27.7338 23.6286 30.736 24.1517Z" fill="url(#paint2_linear_1249_491)"/>
<path d="M27.6484 14.266C28.2496 14.3402 28.756 14.425 29.2661 14.4578C29.5487 14.4769 29.674 14.6135 29.8028 14.8245C31.6065 17.7886 33.4192 20.7475 35.2301 23.7081C35.3034 23.8274 35.3804 23.9416 35.493 24.1163C35.5969 23.9675 35.6792 23.8603 35.7472 23.7462C37.8139 20.3135 39.8825 16.8824 41.9438 13.4463C42.2641 12.9119 42.7061 12.5504 43.327 12.3879C43.5758 12.3222 43.7422 12.3463 43.8388 12.6248C45.2005 16.5279 44.5134 20.0419 41.6272 23.1064C40.2654 24.5504 38.5476 25.4704 36.5756 25.9563C36.3985 25.9996 36.2196 26.1569 36.1087 26.3056C35.8957 26.5909 35.7328 26.9092 35.502 27.2896C32.8734 22.9334 30.2824 18.6342 27.6484 14.266ZM42.8152 15.134C41.0294 18.105 39.2759 21.0208 37.4865 23.9952C40.5874 23.4349 43.7905 18.093 42.8152 15.134Z" fill="url(#paint3_linear_1249_491)"/>
<defs>
<linearGradient id="paint0_linear_1249_491" x1="-3.40956" y1="16.4766" x2="70.4079" y2="19.3053" gradientUnits="userSpaceOnUse">
<stop stop-color="#EC34B7"/>
<stop offset="1" stop-color="#7000FF"/>
</linearGradient>
<linearGradient id="paint1_linear_1249_491" x1="24.9814" y1="14.1596" x2="44.1824" y2="14.5543" gradientUnits="userSpaceOnUse">
<stop stop-color="#EC34B7"/>
<stop offset="1" stop-color="#7000FF"/>
</linearGradient>
<linearGradient id="paint2_linear_1249_491" x1="22.4784" y1="19.0511" x2="39.3524" y2="19.3886" gradientUnits="userSpaceOnUse">
<stop stop-color="#EC34B7"/>
<stop offset="1" stop-color="#7000FF"/>
</linearGradient>
<linearGradient id="paint3_linear_1249_491" x1="26.5945" y1="19.8235" x2="45.213" y2="20.2202" gradientUnits="userSpaceOnUse">
<stop stop-color="#EC34B7"/>
<stop offset="1" stop-color="#7000FF"/>
</linearGradient>
</defs>
</svg>
